<svg version="1.2" xmlns="http://www.w3.org/2000/svg" viewBox="0 0 1549 339" width="1549" height="339">
	<title>airasiacom_logo-svg</title>
	<defs>
		<clipPath clipPathUnits="userSpaceOnUse" id="cp1">
			<path d="m0 0h1548.19v338.72h-1548.19z"/>
		</clipPath>
	</defs>
	<style>
		.s0 { fill: #ff0000 } 
	</style>
	<g id="Clip-Path" clip-path="url(#cp1)">
		<g id="Layer">
			<path id="Layer" class="s0" d="m1109.6 161.2l10.3-69.4c-22.5-12.2-53.9-22.5-90-22.5-71.2 0-110.1 37.5-110.1 85.8 0 51 46.4 66 78.3 76.8 19.2 7 34.2 12.2 34.2 22.5 0 8.4-9.9 16.4-29.5 16.4-28.6 0-68.5-16.4-94.2-39.4l-11.3 75.9c26.7 19.7 65.2 31.4 105.9 31.4 70.8 0 111.1-34.6 111.1-83.8 0-51.6-43.6-68.9-78.7-81.6-19.7-7-33.8-11.2-33.8-21 0-8.5 9.9-15 30-15 29.1 0 59.1 13.6 77.8 23.9z"/>
			<path id="Layer" fill-rule="evenodd" class="s0" d="m207.1 75.9h85.3l-38.9 255.8h-84.8l5.6-24.8c-21.1 24.8-46.8 31.8-76.8 31.8-53.9 0-97-45-97-116.2 0-88.5 59-153.2 126.5-153.2 21.5 0 61.8 2.8 75.4 29.6l4.7-22.5zm-20.1 126.5c0-28.3-22.8-51.1-50.9-51.1-28.1 0-50.8 22.8-50.8 51.1 0 28.2 22.7 51 50.8 51 28.1 0 50.9-22.8 50.9-51z"/>
			<path id="Layer" fill-rule="evenodd" class="s0" d="m832.7 75.9h76.3l-38.8 255.8h-84.9l5.7-24.8c-21.1 24.8-46.9 31.8-76.9 31.8-53.9 0-97-45-97-116.2 0-88.5 59.1-153.2 126.5-153.2 21.6 0 61.9 2.8 75.5 29.6l4.7-22.5h8.9zm-29.1 126.5c0-28.3-22.7-51.1-50.8-51.1-28.1 0-50.9 22.8-50.9 51.1 0 28.2 22.8 51 50.9 51 28.1 0 50.8-22.8 50.8-51z"/>
			<path id="Layer" fill-rule="evenodd" class="s0" d="m1471.8 75.9h76.4l-38.9 255.8h-84.8l5.6-24.8c-21.1 24.8-46.9 31.8-76.8 31.8-53.9 0-97-45-97-116.2 0-88.5 59-153.2 126.5-153.2 21.5 0 61.8 2.8 75.4 29.6l4.7-22.5h8.9zm-29 126.5c0-28.3-22.8-51.1-50.9-51.1-28.1 0-50.8 22.8-50.8 51.1 0 28.2 22.7 51 50.8 51 28.1 0 50.9-22.8 50.9-51z"/>
			<path id="Layer" class="s0" d="m374.4 85.7c-23.6 0-42.6-19-42.6-42.6 0-23.6 19-42.6 42.6-42.6 23.6 0 42.6 19 42.6 42.6 0 23.6-19 42.6-42.6 42.6z"/>
			<path id="Layer" class="s0" d="m373.9 102.1c-18.2 0-34.6-8.4-45.4-21.1l-38 250.7h85.3l37-243.6c-10.8 8.9-23.9 14-38.9 14z"/>
			<path id="Layer" class="s0" d="m573.5 160.7c-23.5 0-42.6-19.1-42.6-42.6 0-23.6 19.1-42.7 42.6-42.7 23.6 0 42.7 19.1 42.7 42.7 0 23.5-19.1 42.6-42.7 42.6z"/>
			<path id="Layer" class="s0" d="m514 118.1c0-16.4 6.6-31.4 17.4-42.2h-80.2l-38.8 255.8h85.2l27.2-179.9c-7-9.4-10.8-21.1-10.8-33.7z"/>
			<path id="Layer" class="s0" d="m1211.7 85.3c-23.5 0-42.6-19.1-42.6-42.7 0-23.5 19.1-42.6 42.6-42.6 23.6 0 42.7 19.1 42.7 42.6 0 23.6-19.1 42.7-42.7 42.7z"/>
			<path id="Layer" class="s0" d="m1211.7 102.1c-18.7 0-35.6-8.9-46.8-22.5l-38.4 252.1h85.2l37.1-242.7c-10.3 8.4-23 13.1-37.1 13.1z"/>
		</g>
	</g>
</svg>